<svg width="36" height="36" viewBox="0 0 36 36" fill="none" xmlns="http://www.w3.org/2000/svg">
<g clip-path="url(#clip0_389_1318)">
<path fillRule="evenodd" clip-rule="evenodd" d="M13.0581 20.8379C15.5542 20.355 18.2256 20.4633 20.3887 21.7529C20.691 21.9335 20.9773 22.1595 21.2248 22.4378C21.7278 23.0036 21.9873 23.7046 21.9993 24.4082C22.2548 24.2437 22.5117 24.0604 22.7712 23.8638L25.1897 22.0378C25.7953 21.5928 26.5271 21.3529 27.2786 21.3529C28.03 21.3529 28.7619 21.5928 29.3674 22.0378C30.4857 22.8806 30.9325 24.3962 30.1312 25.6804C29.5627 26.5914 28.7052 27.8528 27.8344 28.6608C26.9515 29.4768 25.6981 30.1644 24.7496 30.6219C23.5965 31.1784 22.3525 31.486 21.1418 31.6813C18.6671 32.0827 16.0933 32.0211 13.648 31.5168C12.387 31.2573 11.1029 31.126 9.81549 31.1249H6.79227C6.52619 31.1249 6.271 31.0192 6.08285 30.831C5.89469 30.6428 5.78899 30.3877 5.78899 30.1216C5.78899 29.8555 5.89469 29.6003 6.08285 29.4122C6.271 29.224 6.52619 29.1183 6.79227 29.1183H9.81549C11.2361 29.1183 12.6715 29.2668 14.0533 29.5517C16.2822 30.0091 18.5754 30.0594 20.8221 29.7002C21.9298 29.5209 22.9651 29.2547 23.8775 28.8146C24.7911 28.3732 25.8185 27.7926 26.4699 27.1893C27.1294 26.578 27.8665 25.5199 28.4297 24.6183C28.5996 24.3454 28.5755 23.9534 28.1594 23.6391C27.6645 23.2645 26.8926 23.2645 26.399 23.6391L23.9818 25.465C23.016 26.1941 21.8281 26.974 20.3553 27.2094C20.201 27.2338 20.0462 27.2552 19.8911 27.2736C18.9538 27.3817 18.0077 27.3907 17.0685 27.3004C16.935 27.2911 16.8047 27.2553 16.6853 27.1949C16.5658 27.1346 16.4597 27.051 16.373 26.949C16.2864 26.847 16.221 26.7287 16.1808 26.6011C16.1406 26.4734 16.1263 26.339 16.1388 26.2058C16.1513 26.0726 16.1903 25.9432 16.2536 25.8252C16.3168 25.7073 16.403 25.6032 16.5071 25.5191C16.6112 25.435 16.7311 25.3726 16.8596 25.3355C16.9882 25.2984 17.1229 25.2874 17.2558 25.3032C17.9979 25.3752 18.7453 25.3739 19.4871 25.2991L19.5272 25.2951C19.652 25.2177 19.7581 25.1135 19.8378 24.9901C19.9174 24.8667 19.9687 24.7271 19.9879 24.5815C20.0071 24.4358 19.9937 24.2878 19.9488 24.1479C19.9038 24.0081 19.8284 23.88 19.7279 23.7728C19.6213 23.6555 19.4972 23.5553 19.36 23.4759C17.7802 22.5328 15.6693 22.3763 13.4393 22.807C11.2612 23.2452 9.19636 24.1262 7.37284 25.3955C7.26533 25.4717 7.14385 25.526 7.01535 25.5553C6.88685 25.5846 6.75383 25.5883 6.6239 25.5662C6.49397 25.5441 6.36967 25.4966 6.25809 25.4264C6.14651 25.3563 6.04984 25.2649 5.9736 25.1573C5.89735 25.0498 5.84304 24.9284 5.81374 24.7999C5.78445 24.6714 5.78075 24.5383 5.80286 24.4084C5.82497 24.2785 5.87246 24.1542 5.94261 24.0426C6.01276 23.931 6.1042 23.8343 6.21171 23.7581C8.26863 22.3241 10.5994 21.3299 13.0581 20.8379Z" fill="white"/>
<path d="M8.42899 8.22145C8.11165 8.22145 7.82699 8.29145 7.57499 8.43145C7.32299 8.56212 7.10832 8.75812 6.93099 9.01945C6.75365 9.27145 6.61832 9.57945 6.52499 9.94345C6.43165 10.3075 6.38499 10.7228 6.38499 11.1895C6.38499 11.8148 6.46432 12.3421 6.62299 12.7715C6.78165 13.2008 7.02432 13.5275 7.35099 13.7515C7.67765 13.9661 8.08832 14.0735 8.58299 14.0735C9.02165 14.0735 9.44632 14.0128 9.85699 13.8915C10.277 13.7701 10.697 13.6208 11.117 13.4435V15.7255C10.6783 15.9215 10.2257 16.0615 9.75899 16.1455C9.30165 16.2388 8.81165 16.2855 8.28899 16.2855C7.20632 16.2855 6.31965 16.0708 5.62899 15.6415C4.93832 15.2121 4.42965 14.6148 4.10299 13.8495C3.77632 13.0748 3.61299 12.1835 3.61299 11.1755C3.61299 10.4195 3.71565 9.72879 3.92099 9.10345C4.13565 8.46879 4.44832 7.92279 4.85899 7.46545C5.26965 6.99879 5.77365 6.63945 6.37099 6.38745C6.97765 6.13545 7.67299 6.00945 8.45699 6.00945C8.94232 6.00945 9.45099 6.06545 9.98299 6.17745C10.515 6.28945 11.0377 6.46679 11.551 6.70945L10.725 8.83745C10.361 8.66012 9.99232 8.51545 9.61899 8.40345C9.24565 8.28212 8.84899 8.22145 8.42899 8.22145ZM22.4208 11.1335C22.4208 11.9081 22.3275 12.6128 22.1408 13.2475C21.9541 13.8728 21.6648 14.4141 21.2728 14.8715C20.8808 15.3288 20.3768 15.6788 19.7608 15.9215C19.1541 16.1641 18.4215 16.2855 17.5628 16.2855C16.7228 16.2855 15.9948 16.1641 15.3788 15.9215C14.7721 15.6788 14.2681 15.3288 13.8668 14.8715C13.4748 14.4141 13.1808 13.8728 12.9848 13.2475C12.7981 12.6128 12.7048 11.9035 12.7048 11.1195C12.7048 10.0835 12.8775 9.18279 13.2228 8.41745C13.5681 7.64279 14.1001 7.04545 14.8188 6.62545C15.5375 6.20545 16.4568 5.99545 17.5768 5.99545C18.7155 5.99545 19.6395 6.21012 20.3488 6.63945C21.0675 7.05945 21.5901 7.65679 21.9168 8.43145C22.2528 9.19679 22.4208 10.0975 22.4208 11.1335ZM15.5468 11.1335C15.5468 11.7308 15.6121 12.2488 15.7428 12.6875C15.8828 13.1168 16.1021 13.4481 16.4008 13.6815C16.6995 13.9148 17.0868 14.0315 17.5628 14.0315C18.0575 14.0315 18.4495 13.9148 18.7388 13.6815C19.0375 13.4481 19.2521 13.1168 19.3828 12.6875C19.5135 12.2488 19.5788 11.7308 19.5788 11.1335C19.5788 10.2281 19.4295 9.51412 19.1308 8.99145C18.8321 8.46879 18.3141 8.20745 17.5768 8.20745C17.0915 8.20745 16.6995 8.32879 16.4008 8.57145C16.1021 8.80479 15.8828 9.14079 15.7428 9.57945C15.6121 10.0088 15.5468 10.5268 15.5468 11.1335ZM32.709 10.9375C32.709 12.0948 32.4897 13.0608 32.051 13.8355C31.6217 14.6101 31.015 15.1888 30.231 15.5715C29.447 15.9541 28.523 16.1455 27.459 16.1455H24.225V6.14945H27.683C28.7564 6.14945 29.6664 6.33612 30.413 6.70945C31.1597 7.07345 31.729 7.61012 32.121 8.31945C32.513 9.02879 32.709 9.90145 32.709 10.9375ZM29.909 11.0355C29.909 10.4288 29.825 9.92479 29.657 9.52345C29.4984 9.12212 29.2557 8.82345 28.929 8.62745C28.6117 8.43145 28.2057 8.33345 27.711 8.33345H26.927V13.9335H27.529C28.3504 13.9335 28.9524 13.6955 29.335 13.2195C29.7177 12.7435 29.909 12.0155 29.909 11.0355Z" fill="white"/>
</g>
<defs>
<clipPath id="clip0_389_1318">
<rect width="35.3455" height="35.3455" fill="white"/>
</clipPath>
</defs>
</svg>
