<svg width="30" height="28" viewBox="0 0 30 28" fill="none" xmlns="http://www.w3.org/2000/svg">
<g clip-path="url(#clip0_1762_2286)">
<rect x="2.75" y="4.25" width="23.5" height="19.5" rx="6.25" stroke="#333333" stroke-width="1.5"/>
<path fillRule="evenodd" clip-rule="evenodd" d="M20.5125 9.50368C20.4396 9.50052 20.3667 9.49939 20.2938 9.50031H17.25C14.76 9.50031 12.6275 11.2789 12.6275 13.5987C12.6275 15.9184 14.76 17.6971 17.2513 17.6971H20.2925C20.3688 17.6971 20.4425 17.6971 20.5113 17.6926C21.0252 17.663 21.5097 17.4663 21.8745 17.1391C22.2392 16.8118 22.4593 16.3764 22.4938 15.9139C22.4988 15.8476 22.4988 15.7767 22.4988 15.7114V11.4859C22.4988 11.4207 22.4988 11.3498 22.4938 11.2834C22.4593 10.8211 22.2394 10.3859 21.8749 10.0586C21.5104 9.73143 21.0262 9.5346 20.5125 9.50481V9.50368ZM16.9838 14.6911C17.625 14.6911 18.1463 14.2028 18.1463 13.5987C18.1463 12.9946 17.625 12.5063 16.9838 12.5063C16.3425 12.5063 15.8225 12.9946 15.8225 13.5987C15.8225 14.2028 16.3413 14.6911 16.9838 14.6911Z" fill="white" stroke="#333333" stroke-width="1.3"/>
<circle cx="24.5" cy="4" r="4" fill="#FF9900" stroke="white"/>
</g>
<defs>
<clipPath id="clip0_1762_2286">
<rect width="30" height="27" fill="white" transform="translate(0 0.5)"/>
</clipPath>
</defs>
</svg>
